<mxfile host="app.diagrams.net" modified="2023-04-11T01:33:58.546Z" agent="Mozilla/5.0 (X11; Linux x86_64) AppleWebKit/537.36 (KHTML, like Gecko) Chrome/110.0.0.0 Safari/537.36" etag="-_X5Q1EFEPK4KlaBt7Eh" version="21.1.5" type="github">
  <diagram id="prtHgNgQTEPvFCAcTncT" name="Page-1">
    <mxGraphModel dx="1671" dy="895" grid="1" gridSize="10" guides="1" tooltips="1" connect="1" arrows="1" fold="1" page="1" pageScale="1" pageWidth="1169" pageHeight="827" math="0" shadow="0">
      <root>
        <mxCell id="0" />
        <mxCell id="1" parent="0" />
        <mxCell id="_CVdrVDIRZmNFYh-nfX4-27" style="edgeStyle=orthogonalEdgeStyle;rounded=0;orthogonalLoop=1;jettySize=auto;html=1;entryX=0.5;entryY=0;entryDx=0;entryDy=0;endArrow=none;endFill=0;" parent="1" target="_CVdrVDIRZmNFYh-nfX4-19" edge="1">
          <mxGeometry relative="1" as="geometry">
            <mxPoint x="936" y="182" as="sourcePoint" />
          </mxGeometry>
        </mxCell>
        <mxCell id="_CVdrVDIRZmNFYh-nfX4-208" style="edgeStyle=orthogonalEdgeStyle;rounded=0;orthogonalLoop=1;jettySize=auto;html=1;entryX=0.5;entryY=0;entryDx=0;entryDy=0;endArrow=none;endFill=0;" parent="1" source="_CVdrVDIRZmNFYh-nfX4-3" target="_CVdrVDIRZmNFYh-nfX4-205" edge="1">
          <mxGeometry relative="1" as="geometry" />
        </mxCell>
        <mxCell id="_CVdrVDIRZmNFYh-nfX4-3" value="carrier" style="whiteSpace=wrap;html=1;align=center;fillColor=none;shadow=0;direction=east;" parent="1" vertex="1">
          <mxGeometry x="856" y="100" width="160" height="80" as="geometry" />
        </mxCell>
        <mxCell id="_CVdrVDIRZmNFYh-nfX4-11" value="&lt;font style=&quot;font-size: 13px;&quot;&gt;id&lt;/font&gt;" style="html=1;verticalAlign=bottom;startArrow=oval;startFill=1;endArrow=none;startSize=8;edgeStyle=elbowEdgeStyle;elbow=vertical;curved=0;rounded=0;fillColor=none;endFill=0;shadow=0;align=center;labelBackgroundColor=none;" parent="1" edge="1">
          <mxGeometry x="-0.9818" y="22" width="60" relative="1" as="geometry">
            <mxPoint x="1046" y="108" as="sourcePoint" />
            <mxPoint x="1016" y="108.27586206896558" as="targetPoint" />
            <mxPoint x="20" y="-12" as="offset" />
          </mxGeometry>
        </mxCell>
        <mxCell id="_CVdrVDIRZmNFYh-nfX4-12" value="&lt;font style=&quot;font-size: 13px;&quot;&gt;name&lt;/font&gt;" style="html=1;verticalAlign=bottom;startArrow=oval;startFill=0;endArrow=none;startSize=8;edgeStyle=elbowEdgeStyle;elbow=vertical;curved=0;rounded=0;fillColor=none;endFill=0;shadow=0;align=center;labelBackgroundColor=none;" parent="1" edge="1">
          <mxGeometry x="-1" y="32" width="60" relative="1" as="geometry">
            <mxPoint x="1046" y="125" as="sourcePoint" />
            <mxPoint x="1016" y="125" as="targetPoint" />
            <Array as="points">
              <mxPoint x="1036" y="125" />
            </Array>
            <mxPoint x="30" y="-22" as="offset" />
          </mxGeometry>
        </mxCell>
        <mxCell id="_CVdrVDIRZmNFYh-nfX4-13" value="&lt;font style=&quot;font-size: 13px;&quot;&gt;order_register&lt;/font&gt;" style="html=1;verticalAlign=bottom;startArrow=oval;startFill=0;endArrow=none;startSize=8;edgeStyle=elbowEdgeStyle;elbow=vertical;curved=0;rounded=0;fillColor=none;endFill=0;shadow=0;align=center;spacingRight=9;labelBackgroundColor=none;" parent="1" edge="1">
          <mxGeometry x="-0.9819" y="61" width="60" relative="1" as="geometry">
            <mxPoint x="1046" y="142.31" as="sourcePoint" />
            <mxPoint x="1016" y="142.31" as="targetPoint" />
            <mxPoint x="60" y="-51" as="offset" />
          </mxGeometry>
        </mxCell>
        <mxCell id="_CVdrVDIRZmNFYh-nfX4-14" value="&lt;font style=&quot;font-size: 13px;&quot;&gt;freight_type&lt;/font&gt;" style="html=1;verticalAlign=bottom;startArrow=oval;startFill=0;endArrow=none;startSize=8;edgeStyle=elbowEdgeStyle;elbow=vertical;curved=0;rounded=0;fillColor=none;endFill=0;shadow=0;align=center;labelBackgroundColor=none;" parent="1" edge="1">
          <mxGeometry x="-0.9819" y="51" width="60" relative="1" as="geometry">
            <mxPoint x="1046" y="160.31" as="sourcePoint" />
            <mxPoint x="1016" y="160.31" as="targetPoint" />
            <mxPoint x="50" y="-41" as="offset" />
          </mxGeometry>
        </mxCell>
        <mxCell id="_CVdrVDIRZmNFYh-nfX4-16" value="&lt;font style=&quot;font-size: 13px;&quot;&gt;supplier_id&lt;/font&gt;" style="html=1;verticalAlign=bottom;startArrow=oval;startFill=0;endArrow=none;startSize=8;edgeStyle=elbowEdgeStyle;elbow=vertical;curved=0;rounded=0;fillColor=none;endFill=0;shadow=0;align=center;spacing=2;spacingTop=0;spacingRight=11;labelBackgroundColor=none;" parent="1" edge="1">
          <mxGeometry x="-0.9819" y="51" width="60" relative="1" as="geometry">
            <mxPoint x="1046" y="178.31" as="sourcePoint" />
            <mxPoint x="1016" y="178.31" as="targetPoint" />
            <mxPoint x="50" y="-41" as="offset" />
          </mxGeometry>
        </mxCell>
        <mxCell id="_CVdrVDIRZmNFYh-nfX4-29" style="edgeStyle=orthogonalEdgeStyle;rounded=0;orthogonalLoop=1;jettySize=auto;html=1;exitX=0.5;exitY=1;exitDx=0;exitDy=0;entryX=0.5;entryY=0;entryDx=0;entryDy=0;endArrow=none;endFill=0;" parent="1" source="_CVdrVDIRZmNFYh-nfX4-19" target="_CVdrVDIRZmNFYh-nfX4-20" edge="1">
          <mxGeometry relative="1" as="geometry" />
        </mxCell>
        <mxCell id="_CVdrVDIRZmNFYh-nfX4-19" value="include" style="shape=rhombus;perimeter=rhombusPerimeter;whiteSpace=wrap;html=1;align=center;" parent="1" vertex="1">
          <mxGeometry x="876" y="217" width="120" height="60" as="geometry" />
        </mxCell>
        <mxCell id="_CVdrVDIRZmNFYh-nfX4-161" style="edgeStyle=orthogonalEdgeStyle;rounded=0;orthogonalLoop=1;jettySize=auto;html=1;entryX=0.5;entryY=0;entryDx=0;entryDy=0;endArrow=none;endFill=0;" parent="1" source="_CVdrVDIRZmNFYh-nfX4-20" target="_CVdrVDIRZmNFYh-nfX4-35" edge="1">
          <mxGeometry relative="1" as="geometry" />
        </mxCell>
        <mxCell id="_CVdrVDIRZmNFYh-nfX4-211" style="edgeStyle=orthogonalEdgeStyle;rounded=0;orthogonalLoop=1;jettySize=auto;html=1;exitX=0;exitY=0.25;exitDx=0;exitDy=0;endArrow=none;endFill=0;entryX=0.5;entryY=1;entryDx=0;entryDy=0;" parent="1" source="_CVdrVDIRZmNFYh-nfX4-20" target="_CVdrVDIRZmNFYh-nfX4-205" edge="1">
          <mxGeometry relative="1" as="geometry">
            <mxPoint x="763" y="230" as="targetPoint" />
          </mxGeometry>
        </mxCell>
        <mxCell id="_CVdrVDIRZmNFYh-nfX4-20" value="supplier" style="whiteSpace=wrap;html=1;align=center;fillColor=none;" parent="1" vertex="1">
          <mxGeometry x="856" y="315" width="160" height="115" as="geometry" />
        </mxCell>
        <mxCell id="_CVdrVDIRZmNFYh-nfX4-21" value="&lt;font style=&quot;font-size: 13px;&quot;&gt;id&lt;/font&gt;" style="html=1;verticalAlign=bottom;startArrow=oval;startFill=1;endArrow=none;startSize=8;edgeStyle=elbowEdgeStyle;elbow=vertical;curved=0;rounded=0;fillColor=none;endFill=0;spacingRight=7;labelBackgroundColor=none;" parent="1" edge="1">
          <mxGeometry x="-1" y="-23" width="60" relative="1" as="geometry">
            <mxPoint x="1046" y="319.66" as="sourcePoint" />
            <mxPoint x="1016" y="319.66" as="targetPoint" />
            <mxPoint x="20" y="33" as="offset" />
          </mxGeometry>
        </mxCell>
        <mxCell id="_CVdrVDIRZmNFYh-nfX4-22" value="&lt;font style=&quot;font-size: 13px;&quot;&gt;name&lt;/font&gt;" style="html=1;verticalAlign=bottom;startArrow=oval;startFill=0;endArrow=none;startSize=8;edgeStyle=elbowEdgeStyle;elbow=vertical;curved=0;rounded=0;fillColor=none;endFill=0;spacingRight=3;labelBackgroundColor=none;" parent="1" edge="1">
          <mxGeometry x="-1" y="32" width="60" relative="1" as="geometry">
            <mxPoint x="1046" y="336.66" as="sourcePoint" />
            <mxPoint x="1016" y="336.66" as="targetPoint" />
            <Array as="points">
              <mxPoint x="1036" y="336.66" />
            </Array>
            <mxPoint x="30" y="-22" as="offset" />
          </mxGeometry>
        </mxCell>
        <mxCell id="_CVdrVDIRZmNFYh-nfX4-23" value="&lt;font style=&quot;font-size: 13px;&quot;&gt;cnpj&lt;/font&gt;" style="html=1;verticalAlign=bottom;startArrow=oval;startFill=0;endArrow=none;startSize=8;edgeStyle=elbowEdgeStyle;elbow=vertical;curved=0;rounded=0;fillColor=none;endFill=0;spacingRight=-6;labelBackgroundColor=none;" parent="1" edge="1">
          <mxGeometry x="-1" y="-23" width="60" relative="1" as="geometry">
            <mxPoint x="1046" y="355.66" as="sourcePoint" />
            <mxPoint x="1016" y="355.66" as="targetPoint" />
            <mxPoint x="20" y="33" as="offset" />
          </mxGeometry>
        </mxCell>
        <mxCell id="_CVdrVDIRZmNFYh-nfX4-24" value="&lt;font style=&quot;font-size: 13px;&quot;&gt;address&lt;/font&gt;" style="html=1;verticalAlign=bottom;startArrow=oval;startFill=0;endArrow=none;startSize=8;edgeStyle=elbowEdgeStyle;elbow=vertical;curved=0;rounded=0;fillColor=none;endFill=0;spacingRight=9;labelBackgroundColor=none;" parent="1" edge="1">
          <mxGeometry x="-1" y="-41" width="60" relative="1" as="geometry">
            <mxPoint x="1046" y="375.66" as="sourcePoint" />
            <mxPoint x="1016" y="375.66" as="targetPoint" />
            <mxPoint x="40" y="51" as="offset" />
          </mxGeometry>
        </mxCell>
        <mxCell id="_CVdrVDIRZmNFYh-nfX4-25" value="&lt;font style=&quot;font-size: 13px;&quot;&gt;phone&lt;/font&gt;" style="html=1;verticalAlign=bottom;startArrow=oval;startFill=0;endArrow=none;startSize=8;edgeStyle=elbowEdgeStyle;elbow=vertical;curved=0;rounded=0;fillColor=none;endFill=0;labelBackgroundColor=none;" parent="1" edge="1">
          <mxGeometry x="-1" y="-32" width="60" relative="1" as="geometry">
            <mxPoint x="1046" y="393.66" as="sourcePoint" />
            <mxPoint x="1016" y="393.66" as="targetPoint" />
            <mxPoint x="30" y="42" as="offset" />
          </mxGeometry>
        </mxCell>
        <mxCell id="_CVdrVDIRZmNFYh-nfX4-30" value="(1,n)" style="text;strokeColor=none;fillColor=none;spacingLeft=4;spacingRight=4;overflow=hidden;rotatable=0;points=[[0,0.5],[1,0.5]];portConstraint=eastwest;fontSize=6;whiteSpace=wrap;html=1;shadow=0;verticalAlign=middle;align=center;" parent="1" vertex="1">
          <mxGeometry x="936" y="182" width="40" height="20" as="geometry" />
        </mxCell>
        <mxCell id="_CVdrVDIRZmNFYh-nfX4-31" value="(1,n)" style="text;strokeColor=none;fillColor=none;spacingLeft=4;spacingRight=4;overflow=hidden;rotatable=0;points=[[0,0.5],[1,0.5]];portConstraint=eastwest;fontSize=12;whiteSpace=wrap;html=1;align=center;verticalAlign=middle;" parent="1" vertex="1">
          <mxGeometry x="936" y="290" width="40" height="25" as="geometry" />
        </mxCell>
        <mxCell id="_CVdrVDIRZmNFYh-nfX4-32" value="&lt;font style=&quot;font-size: 13px;&quot;&gt;products_id&lt;/font&gt;" style="html=1;verticalAlign=bottom;startArrow=oval;startFill=0;endArrow=none;startSize=8;edgeStyle=elbowEdgeStyle;elbow=vertical;curved=0;rounded=0;fillColor=none;endFill=0;spacingRight=7;labelBackgroundColor=none;" parent="1" edge="1">
          <mxGeometry x="-1" y="-51" width="60" relative="1" as="geometry">
            <mxPoint x="1046" y="412.66" as="sourcePoint" />
            <mxPoint x="1016" y="412.66" as="targetPoint" />
            <mxPoint x="50" y="61" as="offset" />
          </mxGeometry>
        </mxCell>
        <mxCell id="_CVdrVDIRZmNFYh-nfX4-34" style="edgeStyle=orthogonalEdgeStyle;rounded=0;orthogonalLoop=1;jettySize=auto;html=1;exitX=0.5;exitY=1;exitDx=0;exitDy=0;entryX=0.5;entryY=0;entryDx=0;entryDy=0;endArrow=none;endFill=0;" parent="1" target="_CVdrVDIRZmNFYh-nfX4-36" edge="1">
          <mxGeometry relative="1" as="geometry">
            <mxPoint x="935" y="510" as="sourcePoint" />
          </mxGeometry>
        </mxCell>
        <mxCell id="_CVdrVDIRZmNFYh-nfX4-35" value="provide" style="shape=rhombus;perimeter=rhombusPerimeter;whiteSpace=wrap;html=1;align=center;" parent="1" vertex="1">
          <mxGeometry x="876" y="453" width="120" height="60" as="geometry" />
        </mxCell>
        <mxCell id="_CVdrVDIRZmNFYh-nfX4-165" style="edgeStyle=orthogonalEdgeStyle;rounded=0;orthogonalLoop=1;jettySize=auto;html=1;entryX=0.5;entryY=0;entryDx=0;entryDy=0;endArrow=none;endFill=0;" parent="1" source="_CVdrVDIRZmNFYh-nfX4-36" target="_CVdrVDIRZmNFYh-nfX4-51" edge="1">
          <mxGeometry relative="1" as="geometry" />
        </mxCell>
        <mxCell id="_CVdrVDIRZmNFYh-nfX4-36" value="products" style="whiteSpace=wrap;html=1;align=center;fillColor=none;" parent="1" vertex="1">
          <mxGeometry x="845" y="550" width="180" height="80" as="geometry" />
        </mxCell>
        <mxCell id="_CVdrVDIRZmNFYh-nfX4-37" value="&lt;font style=&quot;font-size: 13px;&quot;&gt;id&lt;/font&gt;" style="html=1;verticalAlign=bottom;startArrow=oval;startFill=1;endArrow=none;startSize=8;edgeStyle=elbowEdgeStyle;elbow=vertical;curved=0;rounded=0;fillColor=none;endFill=0;spacing=2;spacingRight=8;labelBackgroundColor=none;" parent="1" edge="1">
          <mxGeometry x="-0.9938" y="21" width="60" relative="1" as="geometry">
            <mxPoint x="1055" y="554.79" as="sourcePoint" />
            <mxPoint x="1025" y="554.79" as="targetPoint" />
            <mxPoint x="18" y="-11" as="offset" />
          </mxGeometry>
        </mxCell>
        <mxCell id="_CVdrVDIRZmNFYh-nfX4-38" value="&lt;font style=&quot;font-size: 13px;&quot;&gt;name&lt;/font&gt;" style="html=1;verticalAlign=bottom;startArrow=oval;startFill=0;endArrow=none;startSize=8;edgeStyle=elbowEdgeStyle;elbow=vertical;curved=0;rounded=0;fillColor=none;endFill=0;spacingRight=4;spacing=3;fontColor=default;labelBackgroundColor=none;" parent="1" edge="1">
          <mxGeometry x="-1" y="30" width="60" relative="1" as="geometry">
            <mxPoint x="1055" y="573.79" as="sourcePoint" />
            <mxPoint x="1025" y="573.79" as="targetPoint" />
            <Array as="points">
              <mxPoint x="1045" y="573.79" />
            </Array>
            <mxPoint x="28" y="-20" as="offset" />
          </mxGeometry>
        </mxCell>
        <mxCell id="_CVdrVDIRZmNFYh-nfX4-39" value="&lt;font style=&quot;font-size: 13px;&quot;&gt;description&lt;/font&gt;" style="html=1;verticalAlign=bottom;startArrow=oval;startFill=0;endArrow=none;startSize=8;edgeStyle=elbowEdgeStyle;elbow=vertical;curved=0;rounded=0;fillColor=none;endFill=0;spacingRight=12;labelBackgroundColor=none;" parent="1" edge="1">
          <mxGeometry x="-0.9938" y="49" width="60" relative="1" as="geometry">
            <mxPoint x="1055" y="592.79" as="sourcePoint" />
            <mxPoint x="1025" y="592.79" as="targetPoint" />
            <mxPoint x="48" y="-39" as="offset" />
          </mxGeometry>
        </mxCell>
        <mxCell id="_CVdrVDIRZmNFYh-nfX4-40" value="&lt;font style=&quot;font-size: 13px;&quot;&gt;type&lt;/font&gt;" style="html=1;verticalAlign=bottom;startArrow=oval;startFill=0;endArrow=none;startSize=8;edgeStyle=elbowEdgeStyle;elbow=vertical;curved=0;rounded=0;fillColor=none;endFill=0;spacingRight=-8;labelBackgroundColor=none;" parent="1" edge="1">
          <mxGeometry x="-1" y="-21" width="60" relative="1" as="geometry">
            <mxPoint x="1055" y="610.79" as="sourcePoint" />
            <mxPoint x="1025" y="610.79" as="targetPoint" />
            <mxPoint x="18" y="31" as="offset" />
          </mxGeometry>
        </mxCell>
        <mxCell id="_CVdrVDIRZmNFYh-nfX4-42" value="(0,n)" style="text;strokeColor=none;fillColor=none;spacingLeft=4;spacingRight=4;overflow=hidden;rotatable=0;points=[[0,0.5],[1,0.5]];portConstraint=eastwest;fontSize=12;whiteSpace=wrap;html=1;align=center;verticalAlign=middle;" parent="1" vertex="1">
          <mxGeometry x="941" y="430" width="40" height="20" as="geometry" />
        </mxCell>
        <mxCell id="_CVdrVDIRZmNFYh-nfX4-43" value="(1,n)" style="text;strokeColor=none;fillColor=none;spacingLeft=4;spacingRight=4;overflow=hidden;rotatable=0;points=[[0,0.5],[1,0.5]];portConstraint=eastwest;fontSize=12;whiteSpace=wrap;html=1;verticalAlign=middle;align=center;" parent="1" vertex="1">
          <mxGeometry x="935" y="527" width="40" height="23" as="geometry" />
        </mxCell>
        <mxCell id="_CVdrVDIRZmNFYh-nfX4-45" value="rules" style="whiteSpace=wrap;html=1;align=center;fillColor=none;" parent="1" vertex="1">
          <mxGeometry x="890" y="750" width="90" height="50" as="geometry" />
        </mxCell>
        <mxCell id="_CVdrVDIRZmNFYh-nfX4-167" style="edgeStyle=orthogonalEdgeStyle;rounded=0;orthogonalLoop=1;jettySize=auto;html=1;entryX=0.5;entryY=0;entryDx=0;entryDy=0;endArrow=none;endFill=0;" parent="1" source="_CVdrVDIRZmNFYh-nfX4-51" target="_CVdrVDIRZmNFYh-nfX4-45" edge="1">
          <mxGeometry relative="1" as="geometry" />
        </mxCell>
        <mxCell id="_CVdrVDIRZmNFYh-nfX4-51" value="include" style="shape=rhombus;perimeter=rhombusPerimeter;whiteSpace=wrap;html=1;align=center;" parent="1" vertex="1">
          <mxGeometry x="875" y="670" width="120" height="45" as="geometry" />
        </mxCell>
        <mxCell id="_CVdrVDIRZmNFYh-nfX4-57" value="(1,n)" style="text;strokeColor=none;fillColor=none;spacingLeft=4;spacingRight=4;overflow=hidden;rotatable=0;points=[[0,0.5],[1,0.5]];portConstraint=eastwest;fontSize=12;whiteSpace=wrap;html=1;verticalAlign=middle;align=center;" parent="1" vertex="1">
          <mxGeometry x="955" y="630" width="41" height="20" as="geometry" />
        </mxCell>
        <mxCell id="_CVdrVDIRZmNFYh-nfX4-58" value="(1,n)" style="text;strokeColor=none;fillColor=none;spacingLeft=4;spacingRight=4;overflow=hidden;rotatable=0;points=[[0,0.5],[1,0.5]];portConstraint=eastwest;fontSize=12;whiteSpace=wrap;html=1;verticalAlign=middle;align=center;" parent="1" vertex="1">
          <mxGeometry x="941" y="730" width="40" height="20" as="geometry" />
        </mxCell>
        <mxCell id="_CVdrVDIRZmNFYh-nfX4-213" style="edgeStyle=orthogonalEdgeStyle;rounded=0;orthogonalLoop=1;jettySize=auto;html=1;entryX=0.5;entryY=0;entryDx=0;entryDy=0;endArrow=none;endFill=0;" parent="1" target="_CVdrVDIRZmNFYh-nfX4-185" edge="1">
          <mxGeometry relative="1" as="geometry">
            <mxPoint x="538" y="229" as="sourcePoint" />
          </mxGeometry>
        </mxCell>
        <mxCell id="_CVdrVDIRZmNFYh-nfX4-256" style="edgeStyle=orthogonalEdgeStyle;rounded=0;orthogonalLoop=1;jettySize=auto;html=1;endArrow=none;endFill=0;" parent="1" source="_CVdrVDIRZmNFYh-nfX4-60" target="_CVdrVDIRZmNFYh-nfX4-254" edge="1">
          <mxGeometry relative="1" as="geometry" />
        </mxCell>
        <mxCell id="lhoIDxbnraqKKXSObp4H-19" style="edgeStyle=orthogonalEdgeStyle;rounded=0;orthogonalLoop=1;jettySize=auto;html=1;exitX=0.25;exitY=1;exitDx=0;exitDy=0;fontFamily=Helvetica;fontSize=12;fontColor=default;" edge="1" parent="1" source="_CVdrVDIRZmNFYh-nfX4-60" target="lhoIDxbnraqKKXSObp4H-16">
          <mxGeometry relative="1" as="geometry" />
        </mxCell>
        <mxCell id="_CVdrVDIRZmNFYh-nfX4-60" value="report_order" style="whiteSpace=wrap;html=1;align=center;fillColor=none;" parent="1" vertex="1">
          <mxGeometry x="411" y="169" width="220" height="60" as="geometry" />
        </mxCell>
        <mxCell id="_CVdrVDIRZmNFYh-nfX4-66" value="&lt;p style=&quot;line-height: 0%;&quot;&gt;id&lt;/p&gt;" style="html=1;verticalAlign=middle;startArrow=oval;startFill=1;endArrow=none;startSize=8;edgeStyle=elbowEdgeStyle;elbow=vertical;curved=0;rounded=0;fillColor=none;endFill=0;align=center;horizontal=0;labelPosition=center;verticalLabelPosition=middle;spacing=0;labelBackgroundColor=none;" parent="1" edge="1">
          <mxGeometry x="-1" y="-20" width="60" relative="1" as="geometry">
            <mxPoint x="414" y="109" as="sourcePoint" />
            <mxPoint x="414" y="169" as="targetPoint" />
            <mxPoint x="20" y="-20" as="offset" />
          </mxGeometry>
        </mxCell>
        <mxCell id="_CVdrVDIRZmNFYh-nfX4-81" value="&lt;p style=&quot;line-height: 0%;&quot;&gt;order_number&lt;br&gt;&lt;/p&gt;" style="html=1;verticalAlign=bottom;startArrow=oval;startFill=0;endArrow=none;startSize=8;edgeStyle=elbowEdgeStyle;elbow=vertical;curved=0;rounded=0;fillColor=none;endFill=0;align=center;horizontal=0;labelPosition=center;verticalLabelPosition=top;spacing=0;fontColor=default;labelBackgroundColor=none;" parent="1" edge="1">
          <mxGeometry x="-1" y="51" width="60" relative="1" as="geometry">
            <mxPoint x="434" y="109" as="sourcePoint" />
            <mxPoint x="434" y="169" as="targetPoint" />
            <mxPoint x="-41" y="-50" as="offset" />
          </mxGeometry>
        </mxCell>
        <mxCell id="_CVdrVDIRZmNFYh-nfX4-82" value="&lt;p style=&quot;line-height: 0%;&quot;&gt;order_date&lt;br&gt;&lt;/p&gt;" style="html=1;verticalAlign=bottom;startArrow=oval;startFill=0;endArrow=none;startSize=8;edgeStyle=elbowEdgeStyle;elbow=vertical;curved=0;rounded=0;fillColor=none;endFill=0;align=center;horizontal=0;labelPosition=center;verticalLabelPosition=top;spacing=0;labelBackgroundColor=none;" parent="1" edge="1">
          <mxGeometry x="-1" y="41" width="60" relative="1" as="geometry">
            <mxPoint x="454" y="109" as="sourcePoint" />
            <mxPoint x="454" y="169" as="targetPoint" />
            <mxPoint x="-31" y="-40" as="offset" />
          </mxGeometry>
        </mxCell>
        <mxCell id="_CVdrVDIRZmNFYh-nfX4-84" value="&lt;p style=&quot;line-height: 0%;&quot;&gt;product_desc&lt;br&gt;&lt;/p&gt;" style="html=1;verticalAlign=bottom;startArrow=oval;startFill=0;endArrow=none;startSize=8;edgeStyle=elbowEdgeStyle;elbow=vertical;curved=0;rounded=0;fillColor=none;endFill=0;align=center;horizontal=0;labelPosition=center;verticalLabelPosition=top;spacing=0;labelBackgroundColor=none;" parent="1" edge="1">
          <mxGeometry x="-1" y="51" width="60" relative="1" as="geometry">
            <mxPoint x="474" y="109" as="sourcePoint" />
            <mxPoint x="474" y="169" as="targetPoint" />
            <mxPoint x="-41" y="-50" as="offset" />
          </mxGeometry>
        </mxCell>
        <mxCell id="_CVdrVDIRZmNFYh-nfX4-85" value="&lt;p style=&quot;line-height: 0%;&quot;&gt;product_qntt&lt;br&gt;&lt;/p&gt;" style="html=1;verticalAlign=bottom;startArrow=oval;startFill=0;endArrow=none;startSize=8;edgeStyle=elbowEdgeStyle;elbow=vertical;curved=0;rounded=0;fillColor=none;endFill=0;align=center;horizontal=0;labelPosition=center;verticalLabelPosition=top;spacing=-4;labelBackgroundColor=none;" parent="1" edge="1">
          <mxGeometry x="-1" y="51" width="60" relative="1" as="geometry">
            <mxPoint x="494" y="109" as="sourcePoint" />
            <mxPoint x="494" y="169" as="targetPoint" />
            <mxPoint x="-41" y="-50" as="offset" />
          </mxGeometry>
        </mxCell>
        <mxCell id="_CVdrVDIRZmNFYh-nfX4-87" value="&lt;p style=&quot;line-height: 0%;&quot;&gt;volume_qntt&lt;br&gt;&lt;/p&gt;" style="html=1;verticalAlign=bottom;startArrow=oval;startFill=0;endArrow=none;startSize=8;edgeStyle=elbowEdgeStyle;elbow=vertical;curved=0;rounded=0;fillColor=none;endFill=0;align=center;horizontal=0;labelPosition=center;verticalLabelPosition=top;spacing=-5;labelBackgroundColor=none;" parent="1" edge="1">
          <mxGeometry x="-1" y="51" width="60" relative="1" as="geometry">
            <mxPoint x="514" y="109" as="sourcePoint" />
            <mxPoint x="514" y="169" as="targetPoint" />
            <mxPoint x="-41" y="-50" as="offset" />
          </mxGeometry>
        </mxCell>
        <mxCell id="_CVdrVDIRZmNFYh-nfX4-88" value="&lt;p style=&quot;line-height: 0%;&quot;&gt;delivery_date&lt;br&gt;&lt;/p&gt;" style="html=1;verticalAlign=bottom;startArrow=oval;startFill=0;endArrow=none;startSize=8;edgeStyle=elbowEdgeStyle;elbow=vertical;curved=0;rounded=0;fillColor=none;endFill=0;align=center;horizontal=0;labelPosition=center;verticalLabelPosition=top;spacing=-1;labelBackgroundColor=none;" parent="1" edge="1">
          <mxGeometry x="-1" y="51" width="60" relative="1" as="geometry">
            <mxPoint x="534" y="109" as="sourcePoint" />
            <mxPoint x="534" y="169" as="targetPoint" />
            <mxPoint x="-41" y="-50" as="offset" />
          </mxGeometry>
        </mxCell>
        <mxCell id="_CVdrVDIRZmNFYh-nfX4-89" value="&lt;p style=&quot;line-height: 0%;&quot;&gt;carrier_id&lt;br&gt;&lt;/p&gt;" style="html=1;verticalAlign=bottom;startArrow=oval;startFill=0;endArrow=none;startSize=8;edgeStyle=elbowEdgeStyle;elbow=vertical;curved=0;rounded=0;fillColor=none;endFill=0;align=center;horizontal=0;labelPosition=center;verticalLabelPosition=top;spacing=-4;labelBackgroundColor=none;" parent="1" edge="1">
          <mxGeometry x="-1" y="41" width="60" relative="1" as="geometry">
            <mxPoint x="554" y="109" as="sourcePoint" />
            <mxPoint x="554" y="169" as="targetPoint" />
            <mxPoint x="-31" y="-40" as="offset" />
          </mxGeometry>
        </mxCell>
        <mxCell id="_CVdrVDIRZmNFYh-nfX4-90" value="&lt;p style=&quot;line-height: 0%;&quot;&gt;supplier_id&lt;br&gt;&lt;/p&gt;" style="html=1;verticalAlign=bottom;startArrow=oval;startFill=0;endArrow=none;startSize=8;edgeStyle=elbowEdgeStyle;elbow=vertical;curved=0;rounded=0;fillColor=none;endFill=0;align=center;horizontal=0;labelPosition=center;verticalLabelPosition=top;spacing=0;labelBackgroundColor=none;" parent="1" edge="1">
          <mxGeometry x="-1" y="41" width="60" relative="1" as="geometry">
            <mxPoint x="574" y="109" as="sourcePoint" />
            <mxPoint x="574" y="169" as="targetPoint" />
            <mxPoint x="-31" y="-40" as="offset" />
          </mxGeometry>
        </mxCell>
        <mxCell id="_CVdrVDIRZmNFYh-nfX4-91" value="&lt;p style=&quot;line-height: 0%;&quot;&gt;freight_type&lt;br&gt;&lt;/p&gt;" style="html=1;verticalAlign=bottom;startArrow=oval;startFill=0;endArrow=none;startSize=8;edgeStyle=elbowEdgeStyle;elbow=vertical;curved=0;rounded=0;fillColor=none;endFill=0;align=center;horizontal=0;labelPosition=center;verticalLabelPosition=top;spacing=-6;labelBackgroundColor=none;" parent="1" edge="1">
          <mxGeometry x="-1" y="51" width="60" relative="1" as="geometry">
            <mxPoint x="594" y="109" as="sourcePoint" />
            <mxPoint x="594" y="169" as="targetPoint" />
            <mxPoint x="-41" y="-50" as="offset" />
          </mxGeometry>
        </mxCell>
        <mxCell id="_CVdrVDIRZmNFYh-nfX4-92" value="&lt;p style=&quot;line-height: 0%;&quot;&gt;tracking_code&lt;br&gt;&lt;/p&gt;" style="html=1;verticalAlign=bottom;startArrow=oval;startFill=0;endArrow=none;startSize=8;edgeStyle=elbowEdgeStyle;elbow=vertical;curved=0;rounded=0;fillColor=none;endFill=0;align=center;horizontal=0;labelPosition=center;verticalLabelPosition=top;spacing=0;labelBackgroundColor=none;" parent="1" edge="1">
          <mxGeometry x="-1" y="51" width="60" relative="1" as="geometry">
            <mxPoint x="614" y="109" as="sourcePoint" />
            <mxPoint x="614" y="169" as="targetPoint" />
            <mxPoint x="-41" y="-50" as="offset" />
          </mxGeometry>
        </mxCell>
        <mxCell id="_CVdrVDIRZmNFYh-nfX4-102" value="(1,n)" style="text;strokeColor=none;fillColor=none;spacingLeft=4;spacingRight=4;overflow=hidden;rotatable=0;points=[[0,0.5],[1,0.5]];portConstraint=eastwest;fontSize=12;whiteSpace=wrap;html=1;verticalAlign=middle;align=center;" parent="1" vertex="1">
          <mxGeometry x="631" y="206" width="40" height="23" as="geometry" />
        </mxCell>
        <mxCell id="lhoIDxbnraqKKXSObp4H-17" style="edgeStyle=orthogonalEdgeStyle;rounded=0;orthogonalLoop=1;jettySize=auto;html=1;exitX=1;exitY=0;exitDx=0;exitDy=0;entryX=0.5;entryY=1;entryDx=0;entryDy=0;fontFamily=Helvetica;fontSize=12;fontColor=default;" edge="1" parent="1" source="_CVdrVDIRZmNFYh-nfX4-103" target="lhoIDxbnraqKKXSObp4H-16">
          <mxGeometry relative="1" as="geometry" />
        </mxCell>
        <mxCell id="_CVdrVDIRZmNFYh-nfX4-103" value="technical&lt;br&gt;_report" style="whiteSpace=wrap;html=1;align=center;fillColor=none;" parent="1" vertex="1">
          <mxGeometry x="175.25" y="627" width="80" height="58" as="geometry" />
        </mxCell>
        <mxCell id="_CVdrVDIRZmNFYh-nfX4-232" style="edgeStyle=orthogonalEdgeStyle;rounded=0;orthogonalLoop=1;jettySize=auto;html=1;endArrow=none;endFill=0;" parent="1" source="_CVdrVDIRZmNFYh-nfX4-138" target="_CVdrVDIRZmNFYh-nfX4-231" edge="1">
          <mxGeometry relative="1" as="geometry" />
        </mxCell>
        <mxCell id="lhoIDxbnraqKKXSObp4H-20" style="edgeStyle=orthogonalEdgeStyle;rounded=0;orthogonalLoop=1;jettySize=auto;html=1;exitX=1;exitY=0.5;exitDx=0;exitDy=0;entryX=0;entryY=0.5;entryDx=0;entryDy=0;fontFamily=Helvetica;fontSize=12;fontColor=default;" edge="1" parent="1" source="_CVdrVDIRZmNFYh-nfX4-138" target="lhoIDxbnraqKKXSObp4H-16">
          <mxGeometry relative="1" as="geometry" />
        </mxCell>
        <mxCell id="_CVdrVDIRZmNFYh-nfX4-138" value="report_receiving&lt;br&gt;_analyze" style="whiteSpace=wrap;html=1;align=center;fillColor=none;horizontal=1;fontSize=12;" parent="1" vertex="1">
          <mxGeometry x="160" y="320" width="110" height="74" as="geometry" />
        </mxCell>
        <mxCell id="_CVdrVDIRZmNFYh-nfX4-139" value="&lt;font style=&quot;font-size: 13px;&quot;&gt;id&lt;/font&gt;" style="html=1;verticalAlign=middle;startArrow=oval;startFill=1;endArrow=none;startSize=8;edgeStyle=elbowEdgeStyle;elbow=vertical;curved=0;rounded=0;fillColor=none;endFill=0;horizontal=1;spacing=0;labelBackgroundColor=none;" parent="1" edge="1">
          <mxGeometry x="-1" y="20" width="60" relative="1" as="geometry">
            <mxPoint x="110" y="324" as="sourcePoint" />
            <mxPoint x="160" y="324" as="targetPoint" />
            <mxPoint x="-20" y="20" as="offset" />
          </mxGeometry>
        </mxCell>
        <mxCell id="_CVdrVDIRZmNFYh-nfX4-140" value="rep_order_id" style="html=1;verticalAlign=middle;startArrow=oval;startFill=0;endArrow=none;startSize=8;edgeStyle=elbowEdgeStyle;elbow=vertical;curved=0;rounded=0;fillColor=none;horizontal=1;endFill=0;spacing=0;spacingLeft=-5;labelBackgroundColor=none;" parent="1" edge="1">
          <mxGeometry x="-1" y="-50" width="60" relative="1" as="geometry">
            <mxPoint x="110" y="340" as="sourcePoint" />
            <mxPoint x="160" y="340" as="targetPoint" />
            <mxPoint x="-50" y="-50" as="offset" />
            <Array as="points">
              <mxPoint x="140" y="340" />
            </Array>
          </mxGeometry>
        </mxCell>
        <mxCell id="_CVdrVDIRZmNFYh-nfX4-141" value="users_id" style="html=1;verticalAlign=middle;startArrow=oval;startFill=0;endArrow=none;startSize=8;edgeStyle=elbowEdgeStyle;elbow=vertical;curved=0;rounded=0;fillColor=none;endFill=0;horizontal=1;spacing=0;spacingBottom=0;spacingRight=0;spacingLeft=0;spacingTop=-4;labelBackgroundColor=none;labelPosition=center;verticalLabelPosition=middle;align=center;" parent="1" edge="1">
          <mxGeometry x="-1" y="40" width="60" relative="1" as="geometry">
            <mxPoint x="110" y="357.83" as="sourcePoint" />
            <mxPoint x="160" y="357.83" as="targetPoint" />
            <mxPoint x="-40" y="44" as="offset" />
            <Array as="points" />
          </mxGeometry>
        </mxCell>
        <mxCell id="_CVdrVDIRZmNFYh-nfX4-143" value="date" style="html=1;verticalAlign=middle;startArrow=oval;startFill=0;endArrow=none;startSize=8;edgeStyle=elbowEdgeStyle;elbow=vertical;curved=0;rounded=0;fillColor=none;endFill=0;horizontal=1;spacing=0;spacingBottom=0;spacingRight=0;spacingLeft=0;spacingTop=20;labelBackgroundColor=none;" parent="1" edge="1">
          <mxGeometry x="-1" y="32" width="60" relative="1" as="geometry">
            <mxPoint x="110" y="374.33" as="sourcePoint" />
            <mxPoint x="160" y="374.33" as="targetPoint" />
            <mxPoint x="-30" y="22" as="offset" />
            <Array as="points">
              <mxPoint x="140" y="374.33" />
            </Array>
          </mxGeometry>
        </mxCell>
        <mxCell id="_CVdrVDIRZmNFYh-nfX4-155" style="edgeStyle=orthogonalEdgeStyle;rounded=0;orthogonalLoop=1;jettySize=auto;html=1;exitX=0;exitY=0.5;exitDx=0;exitDy=0;entryX=1;entryY=0.5;entryDx=0;entryDy=0;endArrow=none;endFill=0;" parent="1" source="_CVdrVDIRZmNFYh-nfX4-144" target="_CVdrVDIRZmNFYh-nfX4-154" edge="1">
          <mxGeometry relative="1" as="geometry" />
        </mxCell>
        <mxCell id="_CVdrVDIRZmNFYh-nfX4-251" style="edgeStyle=orthogonalEdgeStyle;rounded=0;orthogonalLoop=1;jettySize=auto;html=1;entryX=0;entryY=0.5;entryDx=0;entryDy=0;endArrow=none;endFill=0;" parent="1" source="_CVdrVDIRZmNFYh-nfX4-144" target="_CVdrVDIRZmNFYh-nfX4-172" edge="1">
          <mxGeometry relative="1" as="geometry" />
        </mxCell>
        <mxCell id="_CVdrVDIRZmNFYh-nfX4-144" value="users" style="whiteSpace=wrap;html=1;align=center;fillColor=none;" parent="1" vertex="1">
          <mxGeometry x="471" y="568" width="120" height="45" as="geometry" />
        </mxCell>
        <mxCell id="_CVdrVDIRZmNFYh-nfX4-145" value="profile_user" style="whiteSpace=wrap;html=1;align=center;fillColor=none;" parent="1" vertex="1">
          <mxGeometry x="298" y="665" width="85" height="38" as="geometry" />
        </mxCell>
        <mxCell id="_CVdrVDIRZmNFYh-nfX4-148" value="&lt;p style=&quot;line-height: 0%;&quot;&gt;id&lt;/p&gt;" style="html=1;verticalAlign=middle;startArrow=oval;startFill=1;endArrow=none;startSize=8;edgeStyle=elbowEdgeStyle;elbow=vertical;curved=0;rounded=0;fillColor=none;endFill=0;align=center;horizontal=0;labelPosition=center;verticalLabelPosition=middle;spacing=4;labelBackgroundColor=none;" parent="1" edge="1">
          <mxGeometry x="-1" y="-18" width="60" relative="1" as="geometry">
            <mxPoint x="476" y="674" as="sourcePoint" />
            <mxPoint x="476" y="614" as="targetPoint" />
            <mxPoint x="-18" y="18" as="offset" />
          </mxGeometry>
        </mxCell>
        <mxCell id="_CVdrVDIRZmNFYh-nfX4-149" value="&lt;p style=&quot;line-height: 0%;&quot;&gt;name&lt;br&gt;&lt;/p&gt;" style="html=1;verticalAlign=middle;startArrow=oval;startFill=0;endArrow=none;startSize=8;edgeStyle=elbowEdgeStyle;elbow=vertical;curved=0;rounded=0;fillColor=none;endFill=0;align=center;horizontal=0;labelPosition=center;verticalLabelPosition=top;spacing=0;labelBackgroundColor=none;" parent="1" edge="1">
          <mxGeometry x="-1" y="-33" width="60" relative="1" as="geometry">
            <mxPoint x="496" y="674" as="sourcePoint" />
            <mxPoint x="496" y="614" as="targetPoint" />
            <mxPoint x="-33" y="33" as="offset" />
          </mxGeometry>
        </mxCell>
        <mxCell id="_CVdrVDIRZmNFYh-nfX4-150" value="&lt;p style=&quot;line-height: 0%;&quot;&gt;cpf&lt;br&gt;&lt;/p&gt;" style="html=1;verticalAlign=middle;startArrow=oval;startFill=0;endArrow=none;startSize=8;edgeStyle=elbowEdgeStyle;elbow=vertical;curved=0;rounded=0;fillColor=none;endFill=0;align=center;horizontal=0;labelPosition=center;verticalLabelPosition=top;spacing=0;labelBackgroundColor=none;" parent="1" edge="1">
          <mxGeometry x="-1" y="-24" width="60" relative="1" as="geometry">
            <mxPoint x="516" y="673" as="sourcePoint" />
            <mxPoint x="516" y="613" as="targetPoint" />
            <mxPoint x="-24" y="24" as="offset" />
          </mxGeometry>
        </mxCell>
        <mxCell id="_CVdrVDIRZmNFYh-nfX4-151" value="&lt;p style=&quot;line-height: 0%;&quot;&gt;register&lt;br&gt;&lt;/p&gt;" style="html=1;verticalAlign=middle;startArrow=oval;startFill=0;endArrow=none;startSize=8;edgeStyle=elbowEdgeStyle;elbow=vertical;curved=0;rounded=0;fillColor=none;endFill=0;align=center;horizontal=0;labelPosition=center;verticalLabelPosition=top;spacing=-2;labelBackgroundColor=none;" parent="1" edge="1">
          <mxGeometry x="-1" y="-33" width="60" relative="1" as="geometry">
            <mxPoint x="536" y="674" as="sourcePoint" />
            <mxPoint x="536" y="614" as="targetPoint" />
            <mxPoint x="-33" y="33" as="offset" />
          </mxGeometry>
        </mxCell>
        <mxCell id="_CVdrVDIRZmNFYh-nfX4-152" value="&lt;p style=&quot;line-height: 0%;&quot;&gt;profile_id&lt;br&gt;&lt;/p&gt;" style="html=1;verticalAlign=middle;startArrow=oval;startFill=0;endArrow=none;startSize=8;edgeStyle=elbowEdgeStyle;elbow=vertical;curved=0;rounded=0;fillColor=none;endFill=0;align=center;horizontal=0;labelPosition=center;verticalLabelPosition=top;spacing=4;labelBackgroundColor=none;" parent="1" edge="1">
          <mxGeometry x="-1" y="-43" width="60" relative="1" as="geometry">
            <mxPoint x="556" y="674" as="sourcePoint" />
            <mxPoint x="556" y="614" as="targetPoint" />
            <mxPoint x="-43" y="43" as="offset" />
          </mxGeometry>
        </mxCell>
        <mxCell id="_CVdrVDIRZmNFYh-nfX4-153" value="&lt;p style=&quot;line-height: 0%;&quot;&gt;password&lt;br&gt;&lt;/p&gt;" style="html=1;verticalAlign=middle;startArrow=oval;startFill=0;endArrow=none;startSize=8;edgeStyle=elbowEdgeStyle;elbow=vertical;curved=0;rounded=0;fillColor=none;endFill=0;align=center;horizontal=0;labelPosition=center;verticalLabelPosition=top;spacing=4;labelBackgroundColor=none;" parent="1" edge="1">
          <mxGeometry x="-1" y="-43" width="60" relative="1" as="geometry">
            <mxPoint x="573.36" y="674" as="sourcePoint" />
            <mxPoint x="573.36" y="614" as="targetPoint" />
            <mxPoint x="-43" y="43" as="offset" />
          </mxGeometry>
        </mxCell>
        <mxCell id="_CVdrVDIRZmNFYh-nfX4-156" style="edgeStyle=orthogonalEdgeStyle;rounded=0;orthogonalLoop=1;jettySize=auto;html=1;entryX=0.5;entryY=0;entryDx=0;entryDy=0;endArrow=none;endFill=0;" parent="1" source="_CVdrVDIRZmNFYh-nfX4-154" target="_CVdrVDIRZmNFYh-nfX4-145" edge="1">
          <mxGeometry relative="1" as="geometry" />
        </mxCell>
        <mxCell id="_CVdrVDIRZmNFYh-nfX4-154" value="need" style="shape=rhombus;perimeter=rhombusPerimeter;whiteSpace=wrap;html=1;align=center;" parent="1" vertex="1">
          <mxGeometry x="290" y="566" width="100" height="50" as="geometry" />
        </mxCell>
        <mxCell id="_CVdrVDIRZmNFYh-nfX4-157" value="(1,1)" style="text;strokeColor=none;fillColor=none;spacingLeft=4;spacingRight=4;overflow=hidden;rotatable=0;points=[[0,0.5],[1,0.5]];portConstraint=eastwest;fontSize=12;whiteSpace=wrap;html=1;verticalAlign=middle;align=center;" parent="1" vertex="1">
          <mxGeometry x="426" y="590.5" width="45" height="20" as="geometry" />
        </mxCell>
        <mxCell id="_CVdrVDIRZmNFYh-nfX4-158" value="&lt;p style=&quot;line-height: 0%;&quot;&gt;id&lt;/p&gt;" style="html=1;verticalAlign=middle;startArrow=oval;startFill=1;endArrow=none;startSize=8;edgeStyle=elbowEdgeStyle;elbow=vertical;curved=0;rounded=0;fillColor=none;endFill=0;align=center;horizontal=0;labelPosition=center;verticalLabelPosition=middle;spacing=0;spacingRight=0;spacingBottom=8;labelBackgroundColor=none;" parent="1" edge="1">
          <mxGeometry x="-1" y="20" width="60" relative="1" as="geometry">
            <mxPoint x="325.7" y="751" as="sourcePoint" />
            <mxPoint x="325.29999999999995" y="703" as="targetPoint" />
            <mxPoint x="20" y="20" as="offset" />
          </mxGeometry>
        </mxCell>
        <mxCell id="_CVdrVDIRZmNFYh-nfX4-159" value="&lt;p style=&quot;line-height: 0%;&quot;&gt;function&lt;br&gt;&lt;/p&gt;" style="html=1;verticalAlign=middle;startArrow=oval;startFill=0;endArrow=none;startSize=8;edgeStyle=elbowEdgeStyle;elbow=vertical;curved=0;rounded=0;fillColor=none;endFill=0;align=center;horizontal=0;labelPosition=center;verticalLabelPosition=top;spacing=0;spacingRight=-7;spacingBottom=9;labelBackgroundColor=none;" parent="1" edge="1">
          <mxGeometry x="-1" y="40" width="60" relative="1" as="geometry">
            <mxPoint x="355.7" y="751" as="sourcePoint" />
            <mxPoint x="355.3" y="703" as="targetPoint" />
            <mxPoint x="35" y="40" as="offset" />
          </mxGeometry>
        </mxCell>
        <mxCell id="_CVdrVDIRZmNFYh-nfX4-162" value="&lt;font style=&quot;font-size: 13px;&quot;&gt;id&lt;/font&gt;" style="html=1;verticalAlign=bottom;startArrow=oval;startFill=1;endArrow=none;startSize=8;edgeStyle=elbowEdgeStyle;elbow=vertical;curved=0;rounded=0;fillColor=none;endFill=0;spacingRight=7;labelBackgroundColor=none;" parent="1" edge="1">
          <mxGeometry x="-0.9775" y="24" width="60" relative="1" as="geometry">
            <mxPoint x="1010" y="760" as="sourcePoint" />
            <mxPoint x="980" y="760" as="targetPoint" />
            <mxPoint x="23" y="-16" as="offset" />
          </mxGeometry>
        </mxCell>
        <mxCell id="_CVdrVDIRZmNFYh-nfX4-163" value="&lt;font style=&quot;font-size: 13px;&quot;&gt;rule&lt;/font&gt;" style="html=1;verticalAlign=bottom;startArrow=oval;startFill=0;endArrow=none;startSize=8;edgeStyle=elbowEdgeStyle;elbow=vertical;curved=0;rounded=0;fillColor=none;endFill=0;spacingRight=8;labelBackgroundColor=none;" parent="1" edge="1">
          <mxGeometry x="-1" y="32" width="60" relative="1" as="geometry">
            <mxPoint x="1010" y="774.31" as="sourcePoint" />
            <mxPoint x="980" y="774.31" as="targetPoint" />
            <Array as="points">
              <mxPoint x="1000" y="774.31" />
            </Array>
            <mxPoint x="30" y="-22" as="offset" />
          </mxGeometry>
        </mxCell>
        <mxCell id="_CVdrVDIRZmNFYh-nfX4-164" value="&lt;font style=&quot;font-size: 13px;&quot;&gt;products_id&lt;/font&gt;" style="html=1;verticalAlign=bottom;startArrow=oval;startFill=0;endArrow=none;startSize=8;edgeStyle=elbowEdgeStyle;elbow=vertical;curved=0;rounded=0;fillColor=none;endFill=0;spacingRight=7;fontColor=default;labelBackgroundColor=none;" parent="1" edge="1">
          <mxGeometry x="-1" y="-51" width="60" relative="1" as="geometry">
            <mxPoint x="1010" y="789.6600000000001" as="sourcePoint" />
            <mxPoint x="980" y="789.6600000000001" as="targetPoint" />
            <mxPoint x="50" y="61" as="offset" />
          </mxGeometry>
        </mxCell>
        <mxCell id="_CVdrVDIRZmNFYh-nfX4-170" value="(1,1)" style="text;strokeColor=none;fillColor=none;spacingLeft=4;spacingRight=4;overflow=hidden;rotatable=0;points=[[0,0.5],[1,0.5]];portConstraint=eastwest;fontSize=12;whiteSpace=wrap;html=1;verticalAlign=middle;align=center;" parent="1" vertex="1">
          <mxGeometry x="343" y="645" width="45" height="20" as="geometry" />
        </mxCell>
        <mxCell id="_CVdrVDIRZmNFYh-nfX4-176" style="edgeStyle=orthogonalEdgeStyle;rounded=0;orthogonalLoop=1;jettySize=auto;html=1;entryX=0;entryY=0.5;entryDx=0;entryDy=0;exitX=1;exitY=0.5;exitDx=0;exitDy=0;endArrow=none;endFill=0;" parent="1" source="_CVdrVDIRZmNFYh-nfX4-172" target="_CVdrVDIRZmNFYh-nfX4-36" edge="1">
          <mxGeometry relative="1" as="geometry" />
        </mxCell>
        <mxCell id="_CVdrVDIRZmNFYh-nfX4-177" style="edgeStyle=orthogonalEdgeStyle;rounded=0;orthogonalLoop=1;jettySize=auto;html=1;entryX=0;entryY=0.5;entryDx=0;entryDy=0;exitX=0.5;exitY=1;exitDx=0;exitDy=0;endArrow=none;endFill=0;" parent="1" source="_CVdrVDIRZmNFYh-nfX4-172" target="_CVdrVDIRZmNFYh-nfX4-45" edge="1">
          <mxGeometry relative="1" as="geometry" />
        </mxCell>
        <mxCell id="_CVdrVDIRZmNFYh-nfX4-178" style="edgeStyle=orthogonalEdgeStyle;rounded=0;orthogonalLoop=1;jettySize=auto;html=1;entryX=0;entryY=0.5;entryDx=0;entryDy=0;exitX=0.5;exitY=0;exitDx=0;exitDy=0;endArrow=none;endFill=0;" parent="1" source="_CVdrVDIRZmNFYh-nfX4-172" target="_CVdrVDIRZmNFYh-nfX4-20" edge="1">
          <mxGeometry relative="1" as="geometry" />
        </mxCell>
        <mxCell id="_CVdrVDIRZmNFYh-nfX4-172" value="register" style="shape=rhombus;perimeter=rhombusPerimeter;whiteSpace=wrap;html=1;align=center;" parent="1" vertex="1">
          <mxGeometry x="653" y="549" width="120" height="83" as="geometry" />
        </mxCell>
        <mxCell id="_CVdrVDIRZmNFYh-nfX4-180" value="(0,n)" style="text;strokeColor=none;fillColor=none;spacingLeft=4;spacingRight=4;overflow=hidden;rotatable=0;points=[[0,0.5],[1,0.5]];portConstraint=eastwest;fontSize=12;whiteSpace=wrap;html=1;align=center;verticalAlign=middle;" parent="1" vertex="1">
          <mxGeometry x="816" y="368" width="40" height="25" as="geometry" />
        </mxCell>
        <mxCell id="_CVdrVDIRZmNFYh-nfX4-181" value="(0,n)" style="text;strokeColor=none;fillColor=none;spacingLeft=4;spacingRight=4;overflow=hidden;rotatable=0;points=[[0,0.5],[1,0.5]];portConstraint=eastwest;fontSize=12;whiteSpace=wrap;html=1;align=center;verticalAlign=middle;" parent="1" vertex="1">
          <mxGeometry x="805" y="588" width="40" height="25" as="geometry" />
        </mxCell>
        <mxCell id="_CVdrVDIRZmNFYh-nfX4-182" value="(0,n)" style="text;strokeColor=none;fillColor=none;spacingLeft=4;spacingRight=4;overflow=hidden;rotatable=0;points=[[0,0.5],[1,0.5]];portConstraint=eastwest;fontSize=12;whiteSpace=wrap;html=1;align=center;verticalAlign=middle;" parent="1" vertex="1">
          <mxGeometry x="850" y="775" width="40" height="25" as="geometry" />
        </mxCell>
        <mxCell id="_CVdrVDIRZmNFYh-nfX4-184" value="(1,1)" style="text;strokeColor=none;fillColor=none;spacingLeft=4;spacingRight=4;overflow=hidden;rotatable=0;points=[[0,0.5],[1,0.5]];portConstraint=eastwest;fontSize=12;whiteSpace=wrap;html=1;align=center;verticalAlign=middle;" parent="1" vertex="1">
          <mxGeometry x="554.5" y="548" width="40" height="20" as="geometry" />
        </mxCell>
        <mxCell id="_CVdrVDIRZmNFYh-nfX4-248" style="edgeStyle=orthogonalEdgeStyle;rounded=0;orthogonalLoop=1;jettySize=auto;html=1;entryX=0.692;entryY=-0.014;entryDx=0;entryDy=0;entryPerimeter=0;endArrow=none;endFill=0;" parent="1" source="_CVdrVDIRZmNFYh-nfX4-185" edge="1">
          <mxGeometry relative="1" as="geometry">
            <mxPoint x="537.54" y="567.3700000000001" as="targetPoint" />
          </mxGeometry>
        </mxCell>
        <mxCell id="_CVdrVDIRZmNFYh-nfX4-185" value="analyze" style="shape=rhombus;perimeter=rhombusPerimeter;whiteSpace=wrap;html=1;align=center;" parent="1" vertex="1">
          <mxGeometry x="485.5" y="355" width="105" height="56" as="geometry" />
        </mxCell>
        <mxCell id="_CVdrVDIRZmNFYh-nfX4-196" value="(1,1)" style="text;strokeColor=none;fillColor=none;spacingLeft=4;spacingRight=4;overflow=hidden;rotatable=0;points=[[0,0.5],[1,0.5]];portConstraint=eastwest;fontSize=12;whiteSpace=wrap;html=1;align=center;verticalAlign=middle;" parent="1" vertex="1">
          <mxGeometry x="218.25" y="601" width="40" height="20" as="geometry" />
        </mxCell>
        <mxCell id="_CVdrVDIRZmNFYh-nfX4-201" value="&lt;font style=&quot;font-size: 13px;&quot;&gt;id&lt;/font&gt;" style="html=1;verticalAlign=middle;startArrow=oval;startFill=1;endArrow=none;startSize=8;edgeStyle=elbowEdgeStyle;elbow=vertical;curved=0;rounded=0;fillColor=none;endFill=0;horizontal=1;spacing=0;labelBackgroundColor=none;" parent="1" edge="1">
          <mxGeometry x="-1" y="20" width="60" relative="1" as="geometry">
            <mxPoint x="125.25" y="629" as="sourcePoint" />
            <mxPoint x="175.25" y="629" as="targetPoint" />
            <mxPoint x="-20" y="20" as="offset" />
          </mxGeometry>
        </mxCell>
        <mxCell id="_CVdrVDIRZmNFYh-nfX4-202" value="rep_rec_anlz_id" style="html=1;verticalAlign=middle;startArrow=oval;startFill=0;endArrow=none;startSize=8;edgeStyle=elbowEdgeStyle;elbow=vertical;curved=0;rounded=0;fillColor=none;horizontal=1;endFill=0;spacing=0;spacingLeft=14;labelBackgroundColor=none;" parent="1" edge="1">
          <mxGeometry x="-1" y="-70" width="60" relative="1" as="geometry">
            <mxPoint x="125.25" y="642" as="sourcePoint" />
            <mxPoint x="175.25" y="642" as="targetPoint" />
            <mxPoint x="-70" y="-70" as="offset" />
            <Array as="points">
              <mxPoint x="155.25" y="642" />
            </Array>
          </mxGeometry>
        </mxCell>
        <mxCell id="_CVdrVDIRZmNFYh-nfX4-203" value="users_id" style="html=1;verticalAlign=middle;startArrow=oval;startFill=0;endArrow=none;startSize=8;edgeStyle=elbowEdgeStyle;elbow=vertical;curved=0;rounded=0;fillColor=none;endFill=0;horizontal=1;spacing=0;spacingBottom=0;spacingRight=0;spacingLeft=0;spacingTop=-10;labelBackgroundColor=none;labelPosition=center;verticalLabelPosition=middle;align=center;" parent="1" edge="1">
          <mxGeometry x="-1" y="40" width="60" relative="1" as="geometry">
            <mxPoint x="125.25" y="658" as="sourcePoint" />
            <mxPoint x="175.25" y="658" as="targetPoint" />
            <mxPoint x="-40" y="44" as="offset" />
            <Array as="points" />
          </mxGeometry>
        </mxCell>
        <mxCell id="_CVdrVDIRZmNFYh-nfX4-204" value="date" style="html=1;verticalAlign=middle;startArrow=oval;startFill=0;endArrow=none;startSize=8;edgeStyle=elbowEdgeStyle;elbow=vertical;curved=0;rounded=0;fillColor=none;endFill=0;horizontal=1;spacing=0;spacingBottom=0;spacingRight=-6;spacingLeft=0;spacingTop=20;labelBackgroundColor=none;" parent="1" edge="1">
          <mxGeometry x="-1" y="32" width="60" relative="1" as="geometry">
            <mxPoint x="125.25" y="670.86" as="sourcePoint" />
            <mxPoint x="175.25" y="670.86" as="targetPoint" />
            <mxPoint x="-30" y="20" as="offset" />
            <Array as="points">
              <mxPoint x="155.25" y="670.86" />
            </Array>
          </mxGeometry>
        </mxCell>
        <mxCell id="_CVdrVDIRZmNFYh-nfX4-206" style="edgeStyle=orthogonalEdgeStyle;rounded=0;orthogonalLoop=1;jettySize=auto;html=1;entryX=1;entryY=0.5;entryDx=0;entryDy=0;endArrow=none;endFill=0;" parent="1" source="_CVdrVDIRZmNFYh-nfX4-205" target="_CVdrVDIRZmNFYh-nfX4-60" edge="1">
          <mxGeometry relative="1" as="geometry" />
        </mxCell>
        <mxCell id="_CVdrVDIRZmNFYh-nfX4-205" value="require" style="shape=rhombus;perimeter=rhombusPerimeter;whiteSpace=wrap;html=1;align=center;" parent="1" vertex="1">
          <mxGeometry x="703" y="169" width="120" height="60" as="geometry" />
        </mxCell>
        <mxCell id="_CVdrVDIRZmNFYh-nfX4-209" value="(1,1)" style="text;strokeColor=none;fillColor=none;spacingLeft=4;spacingRight=4;overflow=hidden;rotatable=0;points=[[0,0.5],[1,0.5]];portConstraint=eastwest;fontSize=12;whiteSpace=wrap;html=1;verticalAlign=middle;align=center;" parent="1" vertex="1">
          <mxGeometry x="816" y="112" width="40" height="23" as="geometry" />
        </mxCell>
        <mxCell id="_CVdrVDIRZmNFYh-nfX4-212" value="(1,1)" style="text;strokeColor=none;fillColor=none;spacingLeft=4;spacingRight=4;overflow=hidden;rotatable=0;points=[[0,0.5],[1,0.5]];portConstraint=eastwest;fontSize=12;whiteSpace=wrap;html=1;verticalAlign=middle;align=center;" parent="1" vertex="1">
          <mxGeometry x="816" y="316.5" width="40" height="23" as="geometry" />
        </mxCell>
        <mxCell id="_CVdrVDIRZmNFYh-nfX4-223" value="(1,n)" style="text;strokeColor=none;fillColor=none;spacingLeft=4;spacingRight=4;overflow=hidden;rotatable=0;points=[[0,0.5],[1,0.5]];portConstraint=eastwest;fontSize=12;whiteSpace=wrap;html=1;verticalAlign=middle;align=center;" parent="1" vertex="1">
          <mxGeometry x="591" y="593" width="45" height="20" as="geometry" />
        </mxCell>
        <mxCell id="_CVdrVDIRZmNFYh-nfX4-226" value="(1,n)" style="text;strokeColor=none;fillColor=none;spacingLeft=4;spacingRight=4;overflow=hidden;rotatable=0;points=[[0,0.5],[1,0.5]];portConstraint=eastwest;fontSize=12;whiteSpace=wrap;html=1;align=center;verticalAlign=middle;" parent="1" vertex="1">
          <mxGeometry x="538" y="229" width="40" height="20" as="geometry" />
        </mxCell>
        <mxCell id="_CVdrVDIRZmNFYh-nfX4-253" style="edgeStyle=orthogonalEdgeStyle;rounded=0;orthogonalLoop=1;jettySize=auto;html=1;exitX=0.5;exitY=1;exitDx=0;exitDy=0;entryX=0.5;entryY=0;entryDx=0;entryDy=0;endArrow=none;endFill=0;" parent="1" source="_CVdrVDIRZmNFYh-nfX4-231" target="_CVdrVDIRZmNFYh-nfX4-103" edge="1">
          <mxGeometry relative="1" as="geometry" />
        </mxCell>
        <mxCell id="_CVdrVDIRZmNFYh-nfX4-231" value="result" style="shape=rhombus;perimeter=rhombusPerimeter;whiteSpace=wrap;html=1;align=center;" parent="1" vertex="1">
          <mxGeometry x="148.25" y="453" width="133.5" height="82" as="geometry" />
        </mxCell>
        <mxCell id="_CVdrVDIRZmNFYh-nfX4-234" value="(1,1)" style="text;strokeColor=none;fillColor=none;spacingLeft=4;spacingRight=4;overflow=hidden;rotatable=0;points=[[0,0.5],[1,0.5]];portConstraint=eastwest;fontSize=12;whiteSpace=wrap;html=1;align=center;verticalAlign=middle;" parent="1" vertex="1">
          <mxGeometry x="216" y="300" width="40" height="20" as="geometry" />
        </mxCell>
        <mxCell id="_CVdrVDIRZmNFYh-nfX4-255" style="edgeStyle=orthogonalEdgeStyle;rounded=0;orthogonalLoop=1;jettySize=auto;html=1;entryX=0.5;entryY=0;entryDx=0;entryDy=0;endArrow=none;endFill=0;" parent="1" source="_CVdrVDIRZmNFYh-nfX4-254" target="_CVdrVDIRZmNFYh-nfX4-138" edge="1">
          <mxGeometry relative="1" as="geometry" />
        </mxCell>
        <mxCell id="_CVdrVDIRZmNFYh-nfX4-254" value="issue" style="shape=rhombus;perimeter=rhombusPerimeter;whiteSpace=wrap;html=1;align=center;" parent="1" vertex="1">
          <mxGeometry x="161.5" y="171" width="107.5" height="56" as="geometry" />
        </mxCell>
        <mxCell id="_CVdrVDIRZmNFYh-nfX4-258" value="(1,n)" style="text;strokeColor=none;fillColor=none;spacingLeft=4;spacingRight=4;overflow=hidden;rotatable=0;points=[[0,0.5],[1,0.5]];portConstraint=eastwest;fontSize=12;whiteSpace=wrap;html=1;align=center;verticalAlign=middle;" parent="1" vertex="1">
          <mxGeometry x="216" y="394" width="40" height="20" as="geometry" />
        </mxCell>
        <mxCell id="_CVdrVDIRZmNFYh-nfX4-259" value="(1,n)" style="text;strokeColor=none;fillColor=none;spacingLeft=4;spacingRight=4;overflow=hidden;rotatable=0;points=[[0,0.5],[1,0.5]];portConstraint=eastwest;fontSize=12;whiteSpace=wrap;html=1;align=center;verticalAlign=middle;" parent="1" vertex="1">
          <mxGeometry x="371" y="202" width="40" height="20" as="geometry" />
        </mxCell>
        <mxCell id="lhoIDxbnraqKKXSObp4H-1" value="&lt;font style=&quot;font-size: 13px;&quot;&gt;active&lt;/font&gt;" style="html=1;verticalAlign=bottom;startArrow=oval;startFill=0;endArrow=none;startSize=8;edgeStyle=elbowEdgeStyle;elbow=vertical;curved=0;rounded=0;fillColor=none;endFill=0;spacingRight=7;labelBackgroundColor=none;" edge="1" parent="1">
          <mxGeometry x="-0.9956" y="36" width="60" relative="1" as="geometry">
            <mxPoint x="1046" y="428.1" as="sourcePoint" />
            <mxPoint x="1016" y="428.1" as="targetPoint" />
            <mxPoint x="34" y="-24" as="offset" />
          </mxGeometry>
        </mxCell>
        <mxCell id="lhoIDxbnraqKKXSObp4H-2" value="&lt;font style=&quot;font-size: 13px;&quot;&gt;active&lt;/font&gt;" style="html=1;verticalAlign=bottom;startArrow=oval;startFill=0;endArrow=none;startSize=8;edgeStyle=elbowEdgeStyle;elbow=vertical;curved=0;rounded=0;fillColor=none;endFill=0;spacingRight=-13;labelBackgroundColor=none;" edge="1" parent="1">
          <mxGeometry x="-1" y="-21" width="60" relative="1" as="geometry">
            <mxPoint x="1055" y="627" as="sourcePoint" />
            <mxPoint x="1025" y="627" as="targetPoint" />
            <mxPoint x="18" y="31" as="offset" />
          </mxGeometry>
        </mxCell>
        <mxCell id="lhoIDxbnraqKKXSObp4H-3" value="&lt;p style=&quot;line-height: 0%;&quot;&gt;status&lt;br&gt;&lt;/p&gt;" style="html=1;verticalAlign=bottom;startArrow=oval;startFill=0;endArrow=none;startSize=8;edgeStyle=elbowEdgeStyle;elbow=vertical;curved=0;rounded=0;fillColor=none;endFill=0;align=center;horizontal=0;labelPosition=center;verticalLabelPosition=top;spacing=0;labelBackgroundColor=none;" edge="1" parent="1">
          <mxGeometry x="-1" y="32" width="60" relative="1" as="geometry">
            <mxPoint x="627.67" y="109" as="sourcePoint" />
            <mxPoint x="627.67" y="169" as="targetPoint" />
            <mxPoint x="-20" y="-29" as="offset" />
          </mxGeometry>
        </mxCell>
        <mxCell id="lhoIDxbnraqKKXSObp4H-5" value="status" style="html=1;verticalAlign=middle;startArrow=oval;startFill=0;endArrow=none;startSize=8;edgeStyle=elbowEdgeStyle;elbow=vertical;curved=0;rounded=0;fillColor=none;endFill=0;horizontal=1;spacing=0;spacingBottom=0;spacingRight=0;spacingLeft=0;spacingTop=20;labelBackgroundColor=none;" edge="1" parent="1">
          <mxGeometry x="-1" y="32" width="60" relative="1" as="geometry">
            <mxPoint x="109.5" y="388.83" as="sourcePoint" />
            <mxPoint x="159.5" y="388.83" as="targetPoint" />
            <mxPoint x="-30" y="22" as="offset" />
            <Array as="points">
              <mxPoint x="139.5" y="388.83" />
            </Array>
          </mxGeometry>
        </mxCell>
        <mxCell id="lhoIDxbnraqKKXSObp4H-6" value="status" style="html=1;verticalAlign=middle;startArrow=oval;startFill=0;endArrow=none;startSize=8;edgeStyle=elbowEdgeStyle;elbow=vertical;curved=0;rounded=0;fillColor=none;endFill=0;horizontal=1;spacing=0;spacingBottom=0;spacingRight=-6;spacingLeft=0;spacingTop=20;labelBackgroundColor=none;" edge="1" parent="1">
          <mxGeometry x="-1" y="32" width="60" relative="1" as="geometry">
            <mxPoint x="125.25" y="683.86" as="sourcePoint" />
            <mxPoint x="175.25" y="683.86" as="targetPoint" />
            <mxPoint x="-30" y="20" as="offset" />
            <Array as="points">
              <mxPoint x="155.25" y="683.86" />
            </Array>
          </mxGeometry>
        </mxCell>
        <mxCell id="lhoIDxbnraqKKXSObp4H-7" value="&lt;p style=&quot;line-height: 0%;&quot;&gt;active&lt;br&gt;&lt;/p&gt;" style="html=1;verticalAlign=middle;startArrow=oval;startFill=0;endArrow=none;startSize=8;edgeStyle=elbowEdgeStyle;elbow=vertical;curved=0;rounded=0;fillColor=none;endFill=0;align=center;horizontal=0;labelPosition=center;verticalLabelPosition=top;spacing=4;labelBackgroundColor=none;" edge="1" parent="1">
          <mxGeometry x="-1" y="-37" width="60" relative="1" as="geometry">
            <mxPoint x="588.5" y="673" as="sourcePoint" />
            <mxPoint x="588.5" y="613" as="targetPoint" />
            <mxPoint x="-37" y="37" as="offset" />
          </mxGeometry>
        </mxCell>
        <mxCell id="lhoIDxbnraqKKXSObp4H-16" value="status_order" style="shape=rhombus;perimeter=rhombusPerimeter;whiteSpace=wrap;html=1;align=center;" vertex="1" parent="1">
          <mxGeometry x="343" y="368" width="105" height="56" as="geometry" />
        </mxCell>
        <mxCell id="lhoIDxbnraqKKXSObp4H-21" value="&lt;p style=&quot;line-height: 0%;&quot;&gt;id&lt;/p&gt;" style="html=1;verticalAlign=middle;startArrow=oval;startFill=1;endArrow=none;startSize=8;edgeStyle=elbowEdgeStyle;elbow=vertical;curved=0;rounded=0;fillColor=none;endFill=0;align=center;horizontal=1;labelPosition=center;verticalLabelPosition=middle;spacing=0;labelBackgroundColor=none;entryX=0.12;entryY=0.393;entryDx=0;entryDy=0;entryPerimeter=0;" edge="1" parent="1" target="lhoIDxbnraqKKXSObp4H-16">
          <mxGeometry x="-1" y="-16" width="60" relative="1" as="geometry">
            <mxPoint x="356" y="340" as="sourcePoint" />
            <mxPoint x="355.3" y="375" as="targetPoint" />
            <mxPoint x="1" y="-5" as="offset" />
          </mxGeometry>
        </mxCell>
        <mxCell id="lhoIDxbnraqKKXSObp4H-22" value="&lt;p style=&quot;line-height: 0%;&quot;&gt;status&lt;br&gt;&lt;/p&gt;" style="html=1;verticalAlign=middle;startArrow=oval;startFill=0;endArrow=none;startSize=8;edgeStyle=elbowEdgeStyle;elbow=vertical;curved=0;rounded=0;fillColor=none;endFill=0;align=center;horizontal=1;labelPosition=center;verticalLabelPosition=top;spacing=0;fontColor=default;labelBackgroundColor=none;entryX=0.307;entryY=0.207;entryDx=0;entryDy=0;entryPerimeter=0;spacingBottom=0;spacingTop=-3;" edge="1" parent="1" target="lhoIDxbnraqKKXSObp4H-16">
          <mxGeometry x="-1" y="-16" width="60" relative="1" as="geometry">
            <mxPoint x="375.3" y="315" as="sourcePoint" />
            <mxPoint x="375.3" y="375" as="targetPoint" />
            <mxPoint x="11" y="-15" as="offset" />
          </mxGeometry>
        </mxCell>
        <mxCell id="lhoIDxbnraqKKXSObp4H-23" value="(1,1)" style="text;strokeColor=none;fillColor=none;spacingLeft=4;spacingRight=4;overflow=hidden;rotatable=0;points=[[0,0.5],[1,0.5]];portConstraint=eastwest;fontSize=12;whiteSpace=wrap;html=1;align=center;verticalAlign=middle;" vertex="1" parent="1">
          <mxGeometry x="400" y="424" width="40" height="20" as="geometry" />
        </mxCell>
        <mxCell id="lhoIDxbnraqKKXSObp4H-24" value="(1,1)" style="text;strokeColor=none;fillColor=none;spacingLeft=4;spacingRight=4;overflow=hidden;rotatable=0;points=[[0,0.5],[1,0.5]];portConstraint=eastwest;fontSize=12;whiteSpace=wrap;html=1;align=center;verticalAlign=middle;" vertex="1" parent="1">
          <mxGeometry x="310" y="404" width="40" height="20" as="geometry" />
        </mxCell>
        <mxCell id="lhoIDxbnraqKKXSObp4H-25" value="(1,1)" style="text;strokeColor=none;fillColor=none;spacingLeft=4;spacingRight=4;overflow=hidden;rotatable=0;points=[[0,0.5],[1,0.5]];portConstraint=eastwest;fontSize=12;whiteSpace=wrap;html=1;align=center;verticalAlign=middle;" vertex="1" parent="1">
          <mxGeometry x="400" y="347" width="40" height="20" as="geometry" />
        </mxCell>
      </root>
    </mxGraphModel>
  </diagram>
</mxfile>
